# xmcd
#
# Track frame offsets:
#	150
#	15458
#	34108
#	50250
#	64333
#	82556
#	98189
#	109202
#	124055
#	139202
#	153881
#	169367
#	181720
#	197141
#	211453
#	225428
#	238169
#	253181
#	271202
#	286760
#
# Disc length: 4054 seconds
#
# Revision: 1
# Processed by: cddbd v1.5.2PL0 Copyright (c) Steve Scherf et al.
# Submitted via: audiograbber 1.83.01
#
DISCID=0f0fd414
DTITLE=Dolly Parton - Ultimate Selection Of The Century
DYEAR=1900
DGENRE=Country
TTITLE0=But You Know I Love You
TTITLE1=Do I Ever Cross Your Mind
TTITLE2=Hearbreaker
TTITLE3=Two Doors Down
TTITLE4=Real Love
TTITLE5=You're The Only One
TTITLE6=Lovin'You
TTITLE7=We Used To 
TTITLE8=Sweet Summer Lovin'
TTITLE9=Loneyly Comin'Down
TTITLE10=Tie Our Love
TTITLE11=Bobby's Arms
TTITLE12=Don't Call It Love
TTITLE13=I Really Got The Feeling
TTITLE14=Joshua
TTITLE15=Please Don't Stop Loving Me
TTITLE16=It's All Wrong, But It's All Right
TTITLE17=Starting Over Again
TTITLE18=Old Flames
TTITLE19=To Know Him Is To Love Him
EXTD=CD 2 of 2
EXTT0=
EXTT1=
EXTT2=
EXTT3=
EXTT4=
EXTT5=
EXTT6=
EXTT7=
EXTT8=
EXTT9=
EXTT10=
EXTT11=
EXTT12=
EXTT13=
EXTT14=
EXTT15=
EXTT16=
EXTT17=
EXTT18=
EXTT19=
PLAYORDER=
